P3
64 64
255
0 0 0 0 0 0 0 0 0 0 0 0 0 0 0 0 0 0 0 0 0 0 0 0 0 0 0 0 0 0 0 0 0
0 0 0 0 0 0 0 0 0 0 0 0 0 0 0 0 0 0 0 0 0 0 0 0 0 0 0 0 0 0 0 0 0
0 0 0 0 0 0 0 0 0 0 0 0 0 0 0 0 0 0 0 0 0 0 0 0 0 0 0 5 3 107 4 3 106
0 0 0 0 0 0 0 0 0 0 0 0 0 0 0 0 0 0 0 0 0 0 0 0 0 0 0 0 0 0 0 0 0
0 0 0 0 0 0 0 0 0 0 0 0 0 0 0 0 0 0 0 0 0 0 0 0 0 0 0 0 0 0 0 0 0
0 0 0 0 0 0 0 0 0 0 0 0 0 0 0 0 0 0 0 0 0 0 0 0 0 0 0 0 0 0 0 0 0
0 0 0 0 0 0 0 0 0 0 0 0 0 0 0 0 0 0 0 0 0 0 0 0 0 0 0 0 0 0 0 0 0
0 0 0 0 0 0 0 0 0 0 0 0 0 0 0 0 0 0 0 0 0 0 0 0 0 0 0 0 0 0 0 0 0
0 0 0 0 0 0 0 0 0 0 0 0 0 0 0 0 0 0 0 0 2 7 5 201 6 8 199 0 0 2 0 0 0
0 0 0 0 0 0 0 0 0 0 0 0 0 0 0 0 0 0 0 0 0 0 0 0 0 0 0 0 0 0 0 0 0
0 0 0 0 0 0 0 0 0 0 0 0 0 0 0 0 0 0 0 0 0 0 0 0 0 0 0 0 0 0 0 0 0
0 0 0 0 0 0 0 0 0 0 0 0 0 0 0 0 0 0 0 0 0 0 0 0 0 0 0 0 0 0 0 0 0
0 0 0 0 0 0 0 0 0 0 0 0 0 0 0 0 0 0 0 0 0 0 0 0 0 0 0 0 0 0 0 0 0
0 0 0 0 0 0 0 0 0 0 0 0 0 0 0 0 0 0 0 0 0 0 0 0 0 0 0 0 0 0 0 0 0
0 0 0 0 0 0 0 0 0 0 0 0 2 4 107 6 7 239 6 8 238 3 4 107 0 0 0 0 0 0
0 0 0 0 0 0 0 0 0 0 0 0 0 0 0 0 0 0 0 0 0 0 0 0 0 0 0 0 0 0 0 0 0
0 0 0 0 0 0 0 0 0 0 0 0 0 0 0 0 0 0 0 0 0 0 0 0 0 0 0 0 0 0 0 0 0
0 0 0 0 0 0 0 0 0 0 0 0 0 0 0 0 0 0 0 0 0 0 0 0 0 0 0 0 0 0 0 0 0
0 0 0 0 0 0 0 0 0 0 0 0 0 0 0 0 0 0 0 0 0 0 0 0 0 0 0 0 0 0 0 0 0
0 0 0 0 0 0 0 0 0 0 0 0 0 0 0 0 0 0 0 0 0 0 0 0 0 0 0 0 0 0 0 0 0
0 0 0 0 0 0 0 0 0 8 8 194 6 6 242 6 6 242 6 10 195 0 0 0 0 0 0 0 0 0
0 0 0 0 0 0 0 0 0 0 0 0 0 0 0 0 0 0 0 0 0 0 0 0 0 0 0 0 0 0 0 0 0
0 0 0 0 0 0 0 0 0 0 0 0 0 0 0 0 0 0 0 0 0 0 0 0 0 0 0 0 0 0 0 0 0
0 0 0 0 0 0 0 0 0 0 0 0 0 0 0 0 0 0 0 0 0 0 0 0 0 0 0 0 0 0 0 0 0
0 0 0 0 0 0 0 0 0 0 0 0 0 0 0 0 0 0 0 0 0 0 0 0 0 0 0 0 0 0 0 0 0
0 0 0 0 0 0 0 0 0 0 0 0 0 0 0 0 0 0 0 0 0 0 0 0 0 0 0 0 0 0 0 0 0
0 0 0 5 3 116 12 6 232 11 6 236 7 11 237 6 14 232 3 6 115 0 0 0 0 0 0
0 0 0 0 0 0 0 0 0 0 0 0 0 0 0 0 0 0 0 0 0 0 0 0 0 0 0 0 0 0 0 0 0
0 0 0 0 0 0 0 0 0 0 0 0 0 0 0 0 0 0 0 0 0 0 0 0 0 0 0 0 0 0 0 0 0
0 0 0 0 0 0 0 0 0 0 0 0 0 0 0 0 0 0 0 0 0 0 0 0 0 0 0 0 0 0 0 0 0
0 0 0 0 0 0 0 0 0 0 0 0 0 0 0 0 0 0 0 0 0 0 0 0 0 0 0 0 0 0 0 0 0
0 0 0 0 0 0 0 0 0 0 0 0 0 0 0 0 0 0 0 0 0 0 0 0 0 0 0 0 0 0 0 0 0
1 0 17 12 6 194 14 6 232 13 6 233 8 13 233 5 17 232 6 14 194 1 1 18
0 0 0 0 0 0 0 0 0 0 0 0 0 0 0 0 0 0 0 0 0 0 0 0 0 0 0 0 0 0 0 0 0
0 0 0 0 0 0 0 0 0 0 0 0 0 0 0 0 0 0 0 0 0 0 0 0 0 0 0 0 0 0 0 0 0
0 0 0 0 0 0 0 0 0 0 0 0 0 0 0 0 0 0 0 0 0 0 0 0 0 0 0 0 0 0 0 0 0
0 0 0 0 0 0 0 0 0 0 0 0 0 0 0 0 0 0 0 0 0 0 0 0 0 0 0 0 0 0 0 0 0
0 0 0 0 0 0 0 0 0 0 0 0 0 0 0 0 0 0 0 0 0 0 0 0 0 0 0 0 0 0 0 0 0
0 0 0 6 4 107 17 6 229 17 6 229 14 10 230 9 15 230 6 18 229 5 19 229
4 5 108 0 0 0 0 0 0 0 0 0 0 0 0 0 0 0 0 0 0 0 0 0 0 0 0 0 0 0 0 0 0
0 0 0 0 0 0 0 0 0 0 0 0 0 0 0 0 0 0 0 0 0 0 0 0 0 0 0 0 0 0 0 0 0
0 0 0 0 0 0 0 0 0 0 0 0 0 0 0 0 0 0 0 0 0 0 0 0 0 0 0 0 0 0 0 0 0
0 0 0 0 0 0 0 0 0 0 0 0 0 0 0 0 0 0 0 0 0 0 0 0 0 0 0 0 0 0 0 0 0
0 0 0 0 0 0 0 0 0 0 0 0 0 0 0 0 0 0 0 0 0 0 0 0 0 0 0 0 0 0 0 0 0
0 0 0 1 1 12 19 6 189 22 7 223 21 7 225 18 13 223 12 17 225 8 20 225
5 23 225 6 20 190 1 1 12 0 0 0 0 0 0 0 0 0 0 0 0 0 0 0 0 0 0 0 0 0
0 0 0 0 0 0 0 0 0 0 0 0 0 0 0 0 0 0 0 0 0 0 0 0 0 0 0 0 0 0 0 0 0
0 0 0 0 0 0 0 0 0 0 0 0 0 0 0 0 0 0 0 0 0 0 0 0 0 0 0 0 0 0 0 0 0
0 0 0 0 0 0 0 0 0 0 0 0 0 0 0 0 0 0 0 0 0 0 0 0 0 0 0 0 0 0 0 0 0
0 0 0 0 0 0 0 0 0 0 0 0 0 0 0 0 0 0 0 0 0 0 0 0 0 0 0 0 0 0 0 0 0
0 0 0 0 0 0 0 0 0 11 3 108 26 7 217 25 7 220 22 9 222 19 16 219
15 19 220 11 21 220 6 27 220 5 29 217 4 11 108 0 0 0 0 0 0 0 0 0
0 0 0 0 0 0 0 0 0 0 0 0 0 0 0 0 0 0 0 0 0 0 0 0 0 0 0 0 0 0 0 0 0
0 0 0 0 0 0 0 0 0 0 0 0 0 0 0 0 0 0 0 0 0 0 0 0 0 0 0 0 0 0 0 0 0
0 0 0 0 0 0 0 0 0 0 0 0 0 0 0 0 0 0 0 0 0 0 0 0 0 0 0 0 0 0 0 0 0
0 0 0 0 0 0 0 0 0 0 0 0 0 0 0 0 0 0 0 0 0 0 0 0 0 0 0 0 0 0 0 0 0
0 0 0 0 0 0 0 0 0 0 0 0 0 0 0 0 0 0 1 0 3 27 6 179 31 6 215 29 7 217
24 12 218 22 16 217 14 20 218 12 23 217 7 29 217 5 32 216 6 27 180
1 0 3 0 0 0 0 0 0 0 0 0 0 0 0 0 0 0 0 0 0 0 0 0 0 0 0 0 0 0 0 0 0
0 0 0 0 0 0 0 0 0 0 0 0 0 0 0 0 0 0 0 0 0 0 0 0 0 0 0 0 0 0 0 0 0
0 0 0 0 0 0 0 0 0 0 0 0 0 0 0 0 0 0 0 0 0 0 0 0 0 0 0 0 0 0 0 0 0
0 0 0 0 0 0 0 0 0 0 0 0 0 0 0 0 0 0 0 0 0 0 0 0 0 0 0 0 0 0 0 0 0
0 0 0 0 0 0 0 0 0 0 0 0 0 0 0 0 0 0 0 0 0 0 0 0 0 0 0 10 3 98
34 6 210 33 6 213 32 9 213 27 15 213 22 20 213 17 24 213 15 26 213
9 31 212 5 33 214 6 34 210 4 11 96 0 0 0 0 0 0 0 0 0 0 0 0 0 0 0
0 0 0 0 0 0 0 0 0 0 0 0 0 0 0 0 0 0 0 0 0 0 0 0 0 0 0 0 0 0 0 0 0
0 0 0 0 0 0 0 0 0 0 0 0 0 0 0 0 0 0 0 0 0 0 0 0 0 0 0 0 0 0 0 0 0
0 0 0 0 0 0 0 0 0 0 0 0 0 0 0 0 0 0 0 0 0 0 0 0 0 0 0 0 0 0 0 0 0
0 0 0 0 0 0 0 0 0 0 0 0 0 0 0 0 0 0 0 0 0 0 0 0 0 0 0 0 0 0 0 0 0
0 0 0 0 0 0 0 0 1 29 6 175 38 7 208 35 7 210 33 12 209 29 16 209
25 22 208 21 25 209 17 29 208 14 30 209 7 37 210 7 39 208 7 31 173
1 0 1 0 0 0 0 0 0 0 0 0 0 0 0 0 0 0 0 0 0 0 0 0 0 0 0 0 0 0 0 0 0
0 0 0 0 0 0 0 0 0 0 0 0 0 0 0 0 0 0 0 0 0 0 0 0 0 0 0 0 0 0 0 0 0
0 0 0 0 0 0 0 0 0 0 0 0 0 0 0 0 0 0 0 0 0 0 0 0 0 0 0 0 0 0 0 0 0
0 0 0 0 0 0 0 0 0 0 0 0 0 0 0 0 0 0 0 0 0 0 0 0 0 0 0 0 0 0 0 0 0
0 0 0 0 0 0 0 0 0 0 0 0 0 0 0 0 0 0 0 0 0 20 4 94 43 8 201 41 8 205
39 10 205 33 15 206 30 18 205 27 21 206 21 26 206 18 29 206 15 35 205
9 39 206 8 41 204 9 42 201 5 18 95 0 0 0 0 0 0 0 0 0 0 0 0 0 0 0
0 0 0 0 0 0 0 0 0 0 0 0 0 0 0 0 0 0 0 0 0 0 0 0 0 0 0 0 0 0 0 0 0
0 0 0 0 0 0 0 0 0 0 0 0 0 0 0 0 0 0 0 0 0 0 0 0 0 0 0 0 0 0 0 0 0
0 0 0 0 0 0 0 0 0 0 0 0 0 0 0 0 0 0 0 0 0 0 0 0 0 0 0 0 0 0 0 0 0
0 0 0 0 0 0 0 0 0 0 0 0 0 0 0 0 0 0 0 0 0 0 0 0 0 0 0 0 0 0 0 0 0
3 1 24 40 11 168 45 9 199 44 9 200 41 11 201 36 17 202 31 21 202
29 24 201 25 28 201 22 31 201 16 38 202 11 41 202 9 44 201 8 46 200
9 43 168 1 4 22 0 0 0 0 0 0 0 0 0 0 0 0 0 0 0 0 0 0 0 0 0 0 0 0 0 0 0
0 0 0 0 0 0 0 0 0 0 0 0 0 0 0 0 0 0 0 0 0 0 0 0 0 0 0 0 0 0 0 0 0
0 0 0 0 0 0 0 0 0 0 0 0 0 0 0 0 0 0 0 0 0 0 0 0 0 0 0 0 0 0 0 0 0
0 0 0 0 0 0 0 0 0 0 0 0 0 0 0 0 0 0 0 0 0 0 0 0 0 0 0 0 0 0 0 0 0
0 0 0 0 0 0 0 0 0 0 0 0 0 0 0 0 0 0 27 3 99 51 9 194 48 9 196
46 9 198 42 15 198 39 19 198 33 23 198 29 27 197 27 30 197 24 34 197
20 38 197 16 42 197 8 47 198 8 50 196 8 52 195 4 24 102 0 0 0 0 0 0
0 0 0 0 0 0 0 0 0 0 0 0 0 0 0 0 0 0 0 0 0 0 0 0 0 0 0 0 0 0 0 0 0
0 0 0 0 0 0 0 0 0 0 0 0 0 0 0 0 0 0 0 0 0 0 0 0 0 0 0 0 0 0 0 0 0
0 0 0 0 0 0 0 0 0 0 0 0 0 0 0 0 0 0 0 0 0 0 0 0 0 0 0 0 0 0 0 0 0
0 0 0 0 0 0 0 0 0 0 0 0 0 0 0 0 0 0 0 0 0 0 0 0 0 0 0 0 0 0 0 0 0
0 0 0 2 0 13 50 8 166 54 8 191 52 8 193 49 13 193 45 17 193 40 22 193
37 25 193 32 28 194 27 32 194 25 36 194 21 41 193 17 44 193 13 49 193
7 52 194 7 54 192 8 48 168 1 1 14 0 0 0 0 0 0 0 0 0 0 0 0 0 0 0 0 0 0
0 0 0 0 0 0 0 0 0 0 0 0 0 0 0 0 0 0 0 0 0 0 0 0 0 0 0 0 0 0 0 0 0
0 0 0 0 0 0 0 0 0 0 0 0 0 0 0 0 0 0 0 0 0 0 0 0 0 0 0 0 0 0 0 0 0
0 0 0 0 0 0 0 0 0 0 0 0 0 0 0 0 0 0 0 0 0 0 0 0 0 0 0 0 0 0 0 0 0
0 0 0 0 0 0 0 0 0 0 0 0 0 0 0 0 0 0 0 0 0 33 5 99 57 8 188 56 8 189
55 9 190 51 15 189 46 19 190 43 22 189 39 26 190 36 31 188 31 33 190
25 40 190 22 42 190 19 45 189 15 49 190 8 54 191 8 57 189 8 58 187
6 31 100 0 0 0 0 0 0 0 0 0 0 0 0 0 0 0 0 0 0 0 0 0 0 0 0 0 0 0 0 0 0
0 0 0 0 0 0 0 0 0 0 0 0 0 0 0 0 0 0 0 0 0 0 0 0 0 0 0 0 0 0 0 0 0
0 0 0 0 0 0 0 0 0 0 0 0 0 0 0 0 0 0 0 0 0 0 0 0 0 0 0 0 0 0 0 0 0
0 0 0 0 0 0 0 0 0 0 0 0 0 0 0 0 0 0 0 0 0 0 0 0 0 0 0 0 0 0 0 0 0
0 0 0 0 0 0 1 0 8 57 8 159 63 7 183 60 7 186 57 11 186 52 18 185
47 21 186 44 24 187 41 29 185 37 33 185 34 37 184 29 40 186 25 44 186
20 46 187 18 52 184 11 57 186 8 61 185 8 61 184 10 56 159 0 1 8 0 0 0
0 0 0 0 0 0 0 0 0 0 0 0 0 0 0 0 0 0 0 0 0 0 0 0 0 0 0 0 0 0 0 0 0
0 0 0 0 0 0 0 0 0 0 0 0 0 0 0 0 0 0 0 0 0 0 0 0 0 0 0 0 0 0 0 0 0
0 0 0 0 0 0 0 0 0 0 0 0 0 0 0 0 0 0 0 0 0 0 0 0 0 0 0 0 0 0 0 0 0
0 0 0 0 0 0 0 0 0 0 0 0 0 0 0 0 0 0 0 0 0 0 0 0 0 0 0 0 0 0 33 4 95
66 7 179 65 7 181 63 9 181 58 15 181 54 19 181 50 23 181 46 27 181
41 32 182 37 35 182 35 38 182 31 42 181 26 47 181 22 51 181 19 54 181
16 58 181 10 63 181 9 64 181 8 66 178 5 34 94 0 0 0 0 0 0 0 0 0 0 0 0
0 0 0 0 0 0 0 0 0 0 0 0 0 0 0 0 0 0 0 0 0 0 0 0 0 0 0 0 0 0 0 0 0
0 0 0 0 0 0 0 0 0 0 0 0 0 0 0 0 0 0 0 0 0 0 0 0 0 0 0 0 0 0 0 0 0
0 0 0 0 0 0 0 0 0 0 0 0 0 0 0 0 0 0 0 0 0 0 0 0 0 0 0 0 0 0 0 0 0
0 0 0 0 0 0 0 0 0 0 0 0 0 0 0 0 0 0 1 1 3 60 7 150 70 8 176 68 7 178
64 12 178 60 16 178 56 20 177 53 24 177 49 29 177 45 34 176 41 36 178
35 41 178 33 43 178 27 49 177 24 51 178 21 55 177 18 59 177 12 64 179
8 68 178 8 71 175 7 61 150 0 1 2 0 0 0 0 0 0 0 0 0 0 0 0 0 0 0 0 0 0
0 0 0 0 0 0 0 0 0 0 0 0 0 0 0 0 0 0 0 0 0 0 0 0 0 0 0 0 0 0 0 0 0
0 0 0 0 0 0 0 0 0 0 0 0 0 0 0 0 0 0 0 0 0 0 0 0 0 0 0 0 0 0 0 0 0
0 0 0 0 0 0 0 0 0 0 0 0 0 0 0 0 0 0 0 0 0 0 0 0 0 0 0 0 0 0 0 0 0
0 0 0 0 0 0 0 0 0 37 3 87 74 8 171 72 8 173 71 9 173 65 15 173
62 18 174 56 21 175 53 27 174 50 32 173 47 34 173 43 37 174 38 42 173
34 46 174 30 50 173 26 53 174 22 58 173 19 62 174 15 65 174 9 72 174
7 74 173 8 75 171 3 37 84 0 0 0 0 0 0 0 0 0 0 0 0 0 0 0 0 0 0 0 0 0
0 0 0 0 0 0 0 0 0 0 0 0 0 0 0 0 0 0 0 0 0 0 0 0 0 0 0 0 0 0 0 0 0
0 0 0 0 0 0 0 0 0 0 0 0 0 0 0 0 0 0 0 0 0 0 0 0 0 0 0 0 0 0 0 0 0
0 0 0 0 0 0 0 0 0 0 0 0 0 0 0 0 0 0 0 0 0 0 0 0 0 0 0 0 0 0 0 0 0
0 0 0 1 0 9 69 8 143 78 8 167 75 8 170 72 12 170 68 16 169 63 20 169
60 23 169 55 29 169 51 32 170 48 35 171 44 40 169 39 45 169 36 47 169
34 50 169 28 56 170 23 61 169 21 63 169 17 68 169 12 72 170 7 76 170
7 77 169 7 71 143 0 1 4 0 0 0 0 0 0 0 0 0 0 0 0 0 0 0 0 0 0 0 0 0
0 0 0 0 0 0 0 0 0 0 0 0 0 0 0 0 0 0 0 0 0 0 0 0 0 0 0 0 0 0 0 0 0
0 0 0 0 0 0 0 0 0 0 0 0 0 0 0 0 0 0 0 0 0 0 0 0 0 0 0 0 0 0 0 0 0
0 0 0 0 0 0 0 0 0 0 0 0 0 0 0 0 0 0 0 0 0 0 0 0 0 0 0 0 0 0 0 0 0
47 4 90 81 8 162 81 8 165 79 9 165 74 14 165 69 18 165 66 21 164
62 27 165 58 31 165 55 34 165 51 37 167 47 42 166 40 46 167 38 50 165
35 54 165 31 59 164 26 62 165 22 64 166 19 69 165 14 74 166 11 77 166
7 82 165 6 83 162 2 49 90 0 0 0 0 0 0 0 0 0 0 0 0 0 0 0 0 0 0 0 0 0
0 0 0 0 0 0 0 0 0 0 0 0 0 0 0 0 0 0 0 0 0 0 0 0 0 0 0 0 0 0 0 0 0
0 0 0 0 0 0 0 0 0 0 0 0 0 0 0 0 0 0 0 0 0 0 0 0 0 0 0 0 0 0 0 0 0
0 0 0 0 0 0 0 0 0 0 0 0 0 0 0 0 0 0 0 0 0 0 0 0 0 0 0 0 0 0 6 0 15
80 6 142 86 8 160 83 8 162 81 12 161 75 16 161 69 20 162 67 24 162
62 30 161 59 33 162 57 36 161 53 41 161 47 45 162 45 48 161 39 53 161
37 56 161 33 59 161 28 64 162 25 68 161 20 73 161 17 76 161 13 80 162
8 84 162 6 87 160 6 80 142 1 6 15 0 0 0 0 0 0 0 0 0 0 0 0 0 0 0 0 0 0
0 0 0 0 0 0 0 0 0 0 0 0 0 0 0 0 0 0 0 0 0 0 0 0 0 0 0 0 0 0 0 0 0
0 0 0 0 0 0 0 0 0 0 0 0 0 0 0 0 0 0 0 0 0 0 0 0 0 0 0 0 0 0 0 0 0
0 0 0 0 0 0 0 0 0 0 0 0 0 0 0 0 0 0 0 0 0 0 0 0 0 0 0 0 0 0 52 2 86
91 7 154 90 7 156 86 10 157 81 15 158 78 17 157 74 22 157 69 26 158
66 30 157 62 34 157 58 38 158 54 43 158 52 46 156 47 50 157 42 54 158
38 57 158 34 63 157 31 66 157 27 69 157 22 74 157 19 78 157 15 82 157
10 86 158 6 89 158 6 89 157 3 51 87 0 0 0 0 0 0 0 0 0 0 0 0 0 0 0
0 0 0 0 0 0 0 0 0 0 0 0 0 0 0 0 0 0 0 0 0 0 0 0 0 0 0 0 0 0 0 0 0
0 0 0 0 0 0 0 0 0 0 0 0 0 0 0 0 0 0 0 0 0 0 0 0 0 0 0 0 0 0 0 0 0
0 0 0 0 0 0 0 0 0 0 0 0 0 0 0 0 0 0 0 0 0 0 0 0 0 0 0 0 0 0 4 1 11
86 6 135 92 7 154 91 7 155 87 13 154 83 17 154 81 19 152 76 24 153
71 30 153 67 32 154 65 35 153 59 41 154 55 45 155 53 47 154 48 53 154
43 57 155 40 60 154 35 65 154 33 68 154 29 72 154 24 75 155 21 78 154
16 83 154 11 88 154 8 91 154 6 94 153 6 88 134 1 4 11 0 0 0 0 0 0
0 0 0 0 0 0 0 0 0 0 0 0 0 0 0 0 0 0 0 0 0 0 0 0 0 0 0 0 0 0 0 0 0
0 0 0 0 0 0 0 0 0 0 0 0 0 0 0 0 0 0 0 0 0 0 0 0 0 0 0 0 0 0 0 0 0
0 0 0 0 0 0 0 0 0 0 0 0 0 0 0 0 0 0 0 0 0 0 0 0 0 0 0 0 0 0 0 0 0
0 0 0 55 3 81 97 8 146 97 8 149 94 9 150 89 16 150 85 18 150
81 22 150 77 26 150 73 31 150 70 34 149 67 38 150 63 43 149 58 46 150
54 49 151 50 56 149 47 58 150 42 62 150 40 66 149 34 69 151 31 74 149
27 78 149 23 81 150 18 86 150 13 90 149 11 93 148 6 97 150 6 99 147
2 57 81 0 0 0 0 0 0 0 0 0 0 0 0 0 0 0 0 0 0 0 0 0 0 0 0 0 0 0 0 0 0
0 0 0 0 0 0 0 0 0 0 0 0 0 0 0 0 0 0 0 0 0 0 0 0 0 0 0 0 0 0 0 0 0
0 0 0 0 0 0 0 0 0 0 0 0 0 0 0 0 0 0 0 0 0 0 0 0 0 0 0 0 0 0 0 0 0
0 0 0 0 0 0 0 0 0 4 0 7 92 6 126 102 8 143 99 9 145 97 12 145
92 18 145 86 21 146 84 24 145 79 29 146 76 32 146 72 36 146 68 40 145
64 44 146 60 48 145 56 52 145 53 57 145 49 61 145 45 64 145 42 67 146
37 72 145 32 76 146 29 79 145 26 82 146 20 88 146 16 91 146 12 95 146
8 100 145 6 102 145 5 92 127 0 3 7 0 0 0 0 0 0 0 0 0 0 0 0 0 0 0
0 0 0 0 0 0 0 0 0 0 0 0 0 0 0 0 0 0 0 0 0 0 0 0 0 0 0 0 0 0 0 0 0
0 0 0 0 0 0 0 0 0 0 0 0 0 0 0 0 0 0 0 0 0 0 0 0 0 0 0 0 0 0 0 0 0
0 0 0 0 0 0 0 0 0 0 0 0 0 0 0 0 0 0 0 0 0 59 3 76 108 7 137 105 8 141
101 10 142 97 15 142 93 20 142 90 23 140 86 26 141 80 31 142
78 34 141 74 38 141 69 43 141 66 45 142 61 51 142 57 54 142 54 58 142
49 62 143 47 65 143 41 71 142 39 74 141 34 79 141 30 81 143 26 86 142
23 89 142 20 93 141 14 97 142 8 102 142 6 104 142 6 106 139 2 60 76
0 0 0 0 0 0 0 0 0 0 0 0 0 0 0 0 0 0 0 0 0 0 0 0 0 0 0 0 0 0 0 0 0
0 0 0 0 0 0 0 0 0 0 0 0 0 0 0 0 0 0 0 0 0 0 0 0 0 0 0 0 0 0 0 0 0
0 0 0 0 0 0 0 0 0 0 0 0 0 0 0 0 0 0 0 0 0 0 0 0 0 0 0 0 0 0 0 0 0
5 0 11 96 6 120 109 6 138 109 7 138 104 13 138 99 17 138 96 21 137
91 24 138 88 28 139 84 32 138 80 36 138 75 40 138 71 44 138 68 48 138
64 52 137 59 56 138 56 60 137 53 64 138 48 69 137 44 72 138 41 76 137
37 79 138 33 83 137 27 88 138 24 92 138 21 95 138 17 99 137
13 103 138 8 107 139 6 110 136 5 98 118 0 5 11 0 0 0 0 0 0 0 0 0
0 0 0 0 0 0 0 0 0 0 0 0 0 0 0 0 0 0 0 0 0 0 0 0 0 0 0 0 0 0 0 0 0
0 0 0 0 0 0 0 0 0 0 0 0 0 0 0 0 0 0 0 0 0 0 0 0 0 0 0 0 0 0 0 0 0
0 0 0 0 0 0 0 0 0 0 0 0 0 0 0 0 0 0 0 0 0 59 3 70 115 7 132 112 7 135
109 11 134 105 15 134 100 21 133 97 22 134 94 26 134 89 30 134
85 35 133 81 40 133 78 42 133 75 46 133 69 51 133 67 53 134 63 58 133
57 63 134 55 65 134 50 70 134 46 75 133 42 77 134 39 82 134 34 86 134
31 90 133 26 93 135 22 97 134 19 101 133 16 104 133 10 110 134
7 114 132 7 115 131 2 61 71 0 0 0 0 0 0 0 0 0 0 0 0 0 0 0 0 0 0 0 0 0
0 0 0 0 0 0 0 0 0 0 0 0 0 0 0 0 0 0 0 0 0 0 0 0 0 0 0 0 0 0 0 0 0
0 0 0 0 0 0 0 0 0 0 0 0 0 0 0 0 0 0 0 0 0 0 0 0 0 0 0 0 0 0 0 0 0
0 0 0 0 0 0 16 1 14 107 10 113 117 7 129 116 8 129 110 13 130
107 16 129 103 20 131 99 24 130 96 29 129 93 32 128 88 37 128
83 41 130 80 44 130 76 48 130 71 52 130 69 55 130 64 61 130 60 64 130
56 68 130 53 71 131 47 76 130 44 79 130 39 84 130 37 87 129 33 91 130
30 95 129 24 99 130 20 104 130 17 107 130 12 111 130 7 116 130
7 117 129 5 107 112 0 16 12 0 0 0 0 0 0 0 0 0 0 0 0 0 0 0 0 0 0 0 0 0
0 0 0 0 0 0 0 0 0 0 0 0 0 0 0 0 0 0 0 0 0 0 0 0 0 0 0 0 0 0 0 0 0
0 0 0 0 0 0 0 0 0 0 0 0 0 0 0 0 0 0 0 0 0 0 0 0 0 0 0 0 0 0 0 0 0
0 0 0 77 6 74 122 8 123 120 8 125 117 10 126 113 14 126 110 18 126
105 23 125 101 26 126 96 31 127 94 33 126 89 38 126 86 41 126
82 46 126 78 51 125 73 54 126 70 58 126 66 62 126 63 66 125 58 70 126
53 75 125 49 78 126 47 82 125 43 85 125 37 90 126 34 94 126 31 98 125
28 101 125 23 105 125 20 109 125 15 114 126 11 117 126 6 121 126
6 123 124 2 77 73 0 0 0 0 0 0 0 0 0 0 0 0 0 0 0 0 0 0 0 0 0 0 0 0
0 0 0 0 0 0 0 0 0 0 0 0 0 0 0 0 0 0 0 0 0 0 0 0 0 0 0 0 0 0 0 0 0
0 0 0 0 0 0 0 0 0 0 0 0 0 0 0 0 0 0 0 0 0 0 0 0 0 0 0 0 0 0 12 0 8
119 8 108 126 7 120 123 8 122 120 12 122 114 18 122 110 22 122
108 25 121 104 28 122 99 33 121 94 37 122 92 40 122 88 44 122
82 49 122 79 52 122 76 56 121 72 60 122 67 65 122 65 67 120 60 72 121
56 76 121 51 79 122 49 83 121 45 87 122 41 91 122 37 95 122
32 100 121 30 103 121 25 107 122 21 111 122 18 115 121 14 119 121
7 124 122 6 127 120 5 117 110 0 12 8 0 0 0 0 0 0 0 0 0 0 0 0 0 0 0
0 0 0 0 0 0 0 0 0 0 0 0 0 0 0 0 0 0 0 0 0 0 0 0 0 0 0 0 0 0 0 0 0
0 0 0 0 0 0 0 0 0 0 0 0 0 0 0 0 0 0 0 0 0 0 0 0 0 0 0 0 0 0 0 0 0
0 0 0 81 7 69 130 8 116 129 7 117 126 10 118 121 15 118 117 20 117
113 23 118 109 26 118 107 30 117 101 35 118 97 39 118 94 42 117
90 46 117 86 50 118 80 55 118 79 56 118 74 62 118 70 66 118 65 70 119
62 73 118 57 78 118 54 81 118 50 86 118 46 90 117 43 94 117 39 98 118
34 101 119 30 105 118 26 109 118 22 112 119 19 118 117 16 121 117
10 125 119 6 128 119 7 130 116 2 79 68 0 0 0 0 0 0 0 0 0 0 0 0 0 0 0
0 0 0 0 0 0 0 0 0 0 0 0 0 0 0 0 0 0 0 0 0 0 0 0 0 0 0 0 0 0 0 0 0
0 0 0 0 0 0 0 0 0 0 0 0 0 0 0 0 0 0 0 0 0 0 0 0 0 0 0 0 0 0 0 0 0
14 0 9 123 12 99 133 8 112 131 8 115 127 13 114 122 19 113 119 21 114
116 24 114 109 29 115 107 33 113 104 37 112 99 40 114 95 44 114
92 48 113 88 52 113 83 56 114 80 61 113 76 65 113 72 68 114 66 72 114
64 76 113 61 79 113 55 84 114 53 87 113 48 93 114 44 95 115 40 99 114
35 104 114 34 107 113 28 111 115 25 115 114 19 120 114 17 122 114
13 128 113 8 132 114 9 133 112 7 120 99 0 15 10 0 0 0 0 0 0 0 0 0
0 0 0 0 0 0 0 0 0 0 0 0 0 0 0 0 0 0 0 0 0 0 0 0 0 0 0 0 0 0 0 0 0
0 0 0 0 0 0 0 0 0 0 0 0 0 0 0 0 0 0 0 0 0 0 0 0 0 0 0 0 0 0 0 0 0
0 0 0 83 6 62 137 8 108 136 8 109 134 9 110 130 14 110 124 20 110
122 22 109 117 26 110 114 31 109 108 35 110 105 38 110 102 42 110
97 46 110 93 51 109 90 53 110 86 59 109 82 63 109 78 66 109 75 69 109
69 75 109 66 77 109 62 82 109 58 86 110 55 89 108 50 93 111 47 98 110
42 101 111 39 107 109 34 109 110 32 113 109 26 118 110 23 121 110
20 125 110 14 129 111 10 134 110 9 136 109 9 139 106 2 82 59 0 0 0
0 0 0 0 0 0 0 0 0 0 0 0 0 0 0 0 0 0 0 0 0 0 0 0 0 0 0 0 0 0 0 0 0
0 0 0 0 0 0 0 0 0 0 0 0 0 0 0 0 0 0 0 0 0 0 0 0 0 0 0 0 0 0 0 0 0
0 0 0 0 0 0 15 1 9 130 7 93 142 8 103 138 9 107 136 12 106 130 18 106
127 21 106 122 24 107 119 29 105 115 33 105 111 36 105 107 40 106
104 45 105 100 49 104 95 52 106 92 55 106 88 60 106 83 64 107
80 67 106 75 72 106 72 75 106 67 79 106 63 84 106 59 88 106 56 91 106
53 96 105 49 100 105 45 104 105 40 108 106 37 110 106 33 116 105
30 119 105 26 122 106 22 127 106 18 132 106 13 135 107 9 139 106
9 142 103 6 130 91 0 10 8 0 0 0 0 0 0 0 0 0 0 0 0 0 0 0 0 0 0 0 0 0
0 0 0 0 0 0 0 0 0 0 0 0 0 0 0 0 0 0 0 0 0 0 0 0 0 0 0 0 0 0 0 0 0
0 0 0 0 0 0 0 0 0 0 0 0 0 0 0 0 0 0 86 3 56 147 8 98 144 7 102
141 11 101 137 16 102 134 19 102 129 22 102 125 28 100 120 30 102
117 35 101 113 38 101 108 43 102 106 47 101 102 50 102 97 55 102
95 58 101 91 61 102 86 67 101 82 69 102 78 74 101 74 78 101 70 81 102
66 85 102 61 91 101 58 93 102 53 98 102 49 102 101 46 105 102
42 109 103 39 114 101 34 117 103 30 122 102 27 124 102 25 129 101
20 133 101 15 137 103 9 142 102 8 144 101 8 145 99 3 85 56 0 0 0
0 0 0 0 0 0 0 0 0 0 0 0 0 0 0 0 0 0 0 0 0 0 0 0 0 0 0 0 0 0 0 0 0
0 0 0 0 0 0 0 0 0 0 0 0 0 0 0 0 0 0 0 0 0 0 0 0 0 0 0 0 0 0 0 0 0
18 0 8 135 9 86 149 7 96 147 8 97 143 13 98 138 17 99 136 21 96
131 25 97 126 28 98 123 32 97 118 36 97 115 38 98 111 43 98 106 48 99
103 51 99 99 56 99 96 59 98 91 65 97 88 68 97 84 72 96 80 76 98
76 80 97 73 83 98 67 88 98 64 92 97 61 95 98 56 100 98 52 102 99
49 107 98 44 112 97 41 114 99 37 120 97 32 122 99 27 127 99 25 131 97
22 134 98 18 139 98 13 143 99 9 146 98 8 148 97 7 134 84 0 18 8 0 0 0
0 0 0 0 0 0 0 0 0 0 0 0 0 0 0 0 0 0 0 0 0 0 0 0 0 0 0 0 0 0 0 0 0
0 0 0 0 0 0 0 0 0 0 0 0 0 0 0 0 0 0 0 0 0 0 0 0 0 0 0 0 0 0 95 2 51
155 8 90 152 7 93 149 9 95 145 14 94 140 20 94 136 22 96 133 25 95
127 30 94 125 33 94 121 38 94 117 42 94 113 47 93 109 51 94 106 54 93
102 57 94 96 63 94 94 66 93 90 70 94 84 72 96 81 78 94 78 82 93
74 86 94 70 89 94 65 93 95 63 97 94 58 103 94 54 106 93 52 108 94
46 115 93 42 118 93 39 121 94 36 124 94 30 130 94 25 133 95 23 136 95
20 141 93 15 145 94 10 150 94 9 152 92 8 156 90 2 98 53 0 0 0 0 0 0
0 0 0 0 0 0 0 0 0 0 0 0 0 0 0 0 0 0 0 0 0 0 0 0 0 0 0 0 0 0 0 0 0
0 0 0 0 0 0 0 0 0 0 0 0 0 0 0 0 0 0 0 0 0 0 0 0 27 0 6 149 12 81
158 8 87 155 8 90 150 13 91 147 18 89 143 21 90 139 25 90 134 30 90
131 32 89 126 37 89 123 41 89 119 44 90 116 49 89 110 53 91 109 56 89
104 60 90 99 65 90 96 68 89 92 71 90 88 76 90 84 79 91 79 85 90
77 87 90 72 91 91 67 96 90 65 99 90 60 104 90 56 108 89 54 111 89
48 116 91 44 118 91 40 123 90 38 127 89 33 132 89 29 134 90 24 139 90
22 143 89 18 147 89 12 151 91 9 155 90 8 158 88 6 149 80 0 29 12
0 0 0 0 0 0 0 0 0 0 0 0 0 0 0 0 0 0 0 0 0 0 0 0 0 0 0 0 0 0 0 0 0
0 0 0 0 0 0 0 0 0 0 0 0 0 0 0 0 0 0 0 0 0 0 0 0 0 0 0 104 8 53
160 8 84 159 8 86 157 10 87 153 15 86 148 19 86 146 23 85 141 27 86
137 32 85 133 34 86 130 39 85 124 43 86 122 47 85 117 50 86 113 54 87
109 58 86 106 62 85 101 66 86 97 70 86 94 74 85 91 77 85 85 82 87
82 86 85 79 89 86 74 95 85 69 98 86 67 101 85 62 105 86 58 109 87
54 113 87 50 118 86 47 121 86 41 125 87 38 130 86 36 132 86 31 136 86
26 141 86 22 144 86 19 148 87 15 153 86 9 157 87 7 160 86 7 161 84
2 104 50 0 0 0 0 0 0 0 0 0 0 0 0 0 0 0 0 0 0 0 0 0 0 0 0 0 0 0 0 0 0
0 0 0 0 0 0 0 0 0 0 0 0 0 0 0 0 0 0 0 0 0 0 0 0 0 0 0 33 3 13
153 8 69 165 9 79 162 9 82 159 12 83 154 17 83 150 21 82 147 24 82
142 29 82 137 33 83 135 36 82 131 41 82 126 45 82 123 48 83 120 52 82
115 57 82 112 60 82 107 65 82 103 67 82 99 73 82 94 77 82 92 80 82
89 84 81 83 89 82 80 92 81 75 96 83 71 100 83 68 103 83 65 107 82
60 112 83 55 116 83 53 120 82 49 123 82 46 127 81 39 131 82 36 135 82
33 139 81 28 143 82 24 146 82 21 150 82 17 155 82 13 159 82 8 162 83
8 165 80 6 154 72 0 26 6 0 0 0 0 0 0 0 0 0 0 0 0 0 0 0 0 0 0 0 0 0
0 0 0 0 0 0 0 0 0 0 0 0 0 0 0 0 0 0 0 0 0 0 0 0 0 0 0 0 0 0 0 0 0
107 4 41 169 10 74 167 10 76 165 9 79 161 16 78 157 19 78 152 23 79
148 27 77 144 31 76 141 33 78 137 39 78 133 44 77 129 47 78 126 49 78
120 55 79 118 59 77 114 62 78 109 66 78 106 69 78 102 74 78 97 77 78
93 82 78 90 85 79 85 91 78 82 93 79 78 97 79 74 102 78 70 105 78
67 109 78 62 114 78 59 118 77 54 121 79 51 125 78 46 129 78 43 132 78
37 138 77 35 140 78 32 145 77 28 149 77 22 152 78 19 157 78 16 160 78
10 165 79 8 168 77 8 170 74 2 106 46 0 0 0 0 0 0 0 0 0 0 0 0 0 0 0
0 0 0 0 0 0 0 0 0 0 0 0 0 0 0 0 0 0 0 0 0 0 0 0 0 0 0 0 0 0 0 0 0
0 0 0 24 0 3 163 10 64 173 9 71 170 10 73 167 11 75 162 18 74
159 22 72 155 25 72 150 28 73 146 31 74 143 37 73 139 40 75 134 46 74
131 49 73 128 52 74 122 57 75 119 60 75 116 63 75 111 68 74 107 73 74
104 76 74 100 79 75 95 84 75 92 88 72 88 91 75 84 96 73 80 100 74
76 105 73 71 108 74 68 113 73 65 116 73 60 120 74 57 122 74 52 127 74
49 131 73 45 134 75 40 141 73 36 144 74 33 146 75 28 152 74 25 155 74
21 158 74 17 162 74 11 167 75 8 170 74 8 172 72 6 160 64 0 29 6 0 0 0
0 0 0 0 0 0 0 0 0 0 0 0 0 0 0 0 0 0 0 0 0 0 0 0 0 0 0 0 0 0 0 0 0
0 0 0 0 0 0 0 0 0 0 0 0 113 5 41 178 8 68 176 8 69 173 10 71
169 16 71 163 19 72 159 23 71 157 25 70 153 29 71 148 34 70 144 39 69
141 43 69 138 46 69 132 50 71 129 54 70 125 59 70 121 61 71 118 66 69
113 71 70 109 74 70 107 77 70 102 82 70 97 87 69 93 89 71 90 94 69
86 98 70 83 101 69 78 106 70 74 109 71 70 112 71 66 117 70 63 120 70
58 125 70 53 130 70 50 132 70 46 137 70 43 141 70 39 145 70 34 148 71
31 152 71 27 158 69 23 160 71 20 164 70 17 168 70 9 173 71 9 175 69
9 178 66 2 109 38 0 0 0 0 0 0 0 0 0 0 0 0 0 0 0 0 0 0 0 0 0 0 0 0
0 0 0 0 0 0 0 0 0 0 0 0 0 0 0 0 0 0 0 0 0 32 1 7 168 8 58 181 8 64
178 8 67 175 12 67 171 18 66 167 22 66 163 25 65 158 28 67 155 33 66
151 36 66 146 41 66 143 44 67 139 49 66 135 53 66 131 56 67 127 61 65
124 64 66 119 69 65 116 72 65 112 75 67 106 80 67 104 84 65 100 87 66
95 91 67 91 95 67 87 99 67 84 103 66 80 107 67 75 112 67 72 117 66
68 119 67 64 123 66 61 127 65 56 131 66 52 134 66 48 138 66 44 144 65
41 146 66 36 151 66 33 155 66 30 158 65 24 163 67 21 167 66 18 170 66
12 175 67 9 178 66 9 181 64 6 167 56 0 27 5 0 0 0 0 0 0 0 0 0 0 0 0
0 0 0 0 0 0 0 0 0 0 0 0 0 0 0 0 0 0 0 0 0 0 0 0 0 0 0 0 0 0 112 4 34
187 8 59 184 8 61 180 11 63 177 15 61 173 20 63 168 25 62 165 28 61
160 31 62 156 37 61 153 38 62 148 42 63 145 46 63 140 51 62 137 54 62
133 59 61 128 62 63 126 65 62 121 70 62 117 74 62 114 77 62 108 83 62
106 85 62 102 90 62 97 93 63 95 98 61 89 102 62 86 105 63 81 111 62
78 114 62 75 117 62 70 122 62 66 125 62 62 129 62 58 133 62 55 136 62
50 141 62 45 146 63 43 148 62 39 152 63 33 157 63 31 160 62 27 165 62
24 169 61 20 172 62 15 176 63 9 181 64 8 185 61 7 187 59 2 111 35
0 0 0 0 0 0 0 0 0 0 0 0 0 0 0 0 0 0 0 0 0 0 0 0 0 0 0 0 0 0 0 0 0
0 0 0 0 0 0 40 0 6 178 7 53 189 8 56 187 8 58 183 12 59 178 17 58
175 22 57 170 26 58 167 29 57 163 32 59 158 37 58 155 41 58 151 44 58
147 50 57 142 54 58 139 56 58 135 60 59 132 64 57 127 68 59 123 73 58
120 75 59 115 80 58 111 85 57 107 87 59 103 92 58 100 96 57 96 99 58
91 104 58 89 106 59 84 112 58 80 116 58 77 118 59 72 123 59 68 127 59
65 131 57 61 135 57 58 139 57 52 144 58 49 147 58 45 149 59 42 155 58
37 159 58 34 162 58 28 167 59 24 170 59 22 173 58 18 178 59 12 183 59
7 187 59 7 188 58 6 178 52 0 40 5 0 0 0 0 0 0 0 0 0 0 0 0 0 0 0 0 0 0
0 0 0 0 0 0 0 0 0 0 0 0 0 0 0 0 0 0 133 5 34 194 8 51 192 8 53
189 10 55 183 16 54 179 19 54 177 22 54 173 26 55 167 31 55 165 34 55
160 39 54 156 42 55 152 48 54 149 51 54 145 55 54 140 59 55 137 63 54
133 67 54 130 70 53 125 75 54 122 78 54 117 82 54 114 86 53 110 89 55
105 94 54 101 97 55 97 102 54 94 106 53 91 109 54 86 113 55 82 118 55
78 122 54 73 126 55 70 129 54 65 134 54 62 137 54 59 140 55 56 145 53
51 149 54 47 153 53 43 157 54 40 161 53 34 165 55 32 169 54 28 172 54
22 176 55 19 182 52 16 184 55 10 188 56 7 193 53 8 194 52 3 133 34
0 0 0 0 0 0 0 0 0 0 0 0 0 0 0 0 0 0 0 0 0 0 0 0 0 0 0 0 0 0 0 0 0
43 0 6 186 8 45 198 8 47 195 8 50 190 13 51 187 16 51 183 21 49
178 25 50 175 29 50 171 32 51 166 38 50 162 41 50 160 44 51 154 49 51
151 53 51 148 56 50 143 60 51 138 65 50 136 67 51 130 73 51 127 76 50
125 79 50 119 84 51 115 88 50 111 92 51 108 96 50 104 99 51 99 104 51
95 107 51 92 111 50 88 117 49 83 119 51 81 124 50 76 128 50 73 131 50
69 135 50 63 139 51 60 143 51 56 147 51 53 151 51 49 154 51 44 159 51
41 162 50 37 166 51 32 171 50 30 174 50 25 180 49 20 182 51 18 186 49
12 191 51 8 194 51 8 198 47 7 185 46 0 43 4 0 0 0 0 0 0 0 0 0 0 0 0
0 0 0 0 0 0 0 0 0 0 0 0 0 0 0 0 0 0 135 4 28 203 7 43 199 8 46
196 10 47 192 16 46 189 20 45 185 22 46 180 28 46 177 31 46 173 35 45
168 39 46 164 43 46 161 46 46 157 52 46 153 54 48 149 59 47 146 63 46
141 66 47 136 71 46 134 74 46 129 78 46 125 82 46 122 86 46 118 89 47
113 94 47 109 99 46 107 101 46 103 105 46 97 110 47 94 114 46
89 118 46 86 121 46 83 125 46 78 129 46 74 133 47 71 137 46 66 141 46
63 146 45 59 149 46 54 152 47 51 157 45 47 161 46 42 165 47 38 169 47
34 173 46 32 176 45 27 180 46 20 185 47 18 188 47 15 192 46 10 197 46
8 199 46 8 202 44 5 135 26 0 0 0 0 0 0 0 0 0 0 0 0 0 0 0 0 0 0 0 0 0
0 0 0 0 0 0 42 1 5 194 7 37 206 7 40 203 7 43 198 13 43 194 18 43
189 21 43 186 25 42 182 29 43 178 32 43 175 36 42 170 40 43 166 44 43
162 50 42 158 54 43 156 56 42 150 61 44 147 65 42 143 68 43 139 73 42
135 77 41 132 80 42 127 85 42 124 88 41 120 91 43 115 96 43
111 100 42 108 104 41 105 106 43 99 113 41 96 116 41 91 119 43
87 123 43 84 127 43 79 131 43 76 135 43 73 139 42 68 144 42 64 147 42
61 151 43 57 155 42 53 159 41 49 163 43 45 167 43 41 171 42 37 174 43
32 178 43 29 183 42 26 186 42 20 191 42 17 195 42 13 198 43 8 203 43
8 206 40 7 194 37 1 41 5 0 0 0 0 0 0 0 0 0 0 0 0 0 0 0 0 0 0 0 0 0
0 0 0 137 3 24 209 7 37 208 7 38 204 11 39 200 15 39 196 19 38
193 23 38 189 26 40 184 32 38 181 35 39 175 39 40 173 43 37 169 46 38
164 51 39 160 55 38 157 58 39 154 62 38 148 67 39 146 69 39 141 73 40
136 78 39 134 81 39 129 85 39 125 89 39 122 94 38 117 98 39
113 102 38 109 105 39 105 110 39 101 113 39 98 117 38 94 120 39
89 126 38 86 129 39 83 133 38 78 138 38 75 141 38 70 144 39 66 148 40
63 152 39 58 158 38 54 159 40 50 164 39 46 169 39 44 172 38 40 176 39
33 181 40 31 185 39 28 188 39 23 192 39 18 197 38 16 199 39 10 205 39
8 208 38 8 209 37 3 136 22 0 0 0 0 0 0 0 0 0 0 0 0 0 0 0 0 0 0 0 0 0
41 1 4 200 10 29 213 8 33 210 7 36 205 14 35 202 17 34 198 21 34
194 25 35 189 30 35 187 34 33 182 37 35 178 41 35 174 45 34 171 48 35
167 52 35 162 57 35 158 60 36 155 64 35 150 69 36 146 73 35 143 77 34
139 80 35 135 85 34 131 88 35 126 91 36 123 96 34 120 100 34
116 103 35 111 108 34 107 112 34 104 114 35 99 119 35 95 124 35
91 128 35 88 131 34 84 135 35 78 139 36 77 142 35 72 147 36 68 151 35
64 155 34 60 159 35 57 162 35 52 167 36 49 170 36 45 174 35 41 179 35
37 183 34 33 187 35 29 190 34 25 195 34 20 198 34 17 201 35 11 206 37
8 210 36 8 212 33 7 201 29 0 43 3 0 0 0 0 0 0 0 0 0 0 0 0 0 0 0 0 0 0
138 5 19 218 8 28 216 8 30 212 10 32 207 15 33 203 19 31 201 21 31
196 27 30 192 31 31 188 35 30 185 37 31 180 43 30 176 47 31 173 51 30
169 55 30 164 59 31 162 62 31 157 67 31 153 71 30 149 74 31 145 79 31
142 82 30 137 86 30 134 89 31 130 93 31 125 98 31 121 101 30
119 105 30 112 110 31 111 113 30 105 117 32 101 121 32 98 126 30
94 129 31 90 132 31 86 137 31 83 141 31 78 146 30 75 149 31 71 152 31
65 158 30 63 160 31 60 165 30 56 169 29 50 173 32 47 176 30 44 181 30
39 184 31 34 188 32 31 192 31 28 196 30 22 199 32 20 204 30 17 208 31
10 213 31 9 215 29 9 217 27 3 140 16 0 0 0 0 0 0 0 0 0 0 0 0 0 0 0
50 1 1 207 8 23 221 8 24 217 8 28 215 14 27 210 19 27 206 21 26
202 25 27 198 30 26 194 33 26 189 36 28 186 41 27 182 45 27 179 48 28
174 54 26 171 57 26 166 61 26 163 65 25 159 69 27 155 73 27 151 76 27
147 81 27 144 84 26 138 89 26 136 92 26 131 96 26 127 100 26
123 103 28 120 108 26 115 112 27 111 115 27 107 120 26 104 123 27
100 129 26 97 131 26 92 136 27 88 140 27 85 142 28 79 149 26
77 150 26 72 155 27 68 160 27 64 163 27 61 166 27 56 171 27 54 175 26
48 178 27 45 182 27 42 187 27 37 191 27 34 194 28 30 198 26 25 203 26
21 206 26 18 209 28 12 216 26 9 217 27 9 221 24 8 207 22 1 49 1 0 0 0
0 0 0 0 0 0 0 0 0 162 4 17 226 7 19 224 7 22 220 10 24 215 16 24
212 20 23 209 23 23 203 29 23 200 32 22 196 35 22 192 39 24 188 43 24
185 47 22 181 51 22 175 54 24 173 58 23 168 62 23 164 66 23 160 69 24
157 74 23 153 78 24 149 82 24 146 86 24 140 90 24 136 93 24 133 98 22
130 101 22 125 106 23 122 110 22 119 113 23 113 118 22 110 120 23
107 125 22 102 130 21 97 133 24 94 137 23 91 142 22 87 145 22
81 149 24 78 153 23 75 157 22 71 160 23 66 165 23 61 169 23 59 172 23
55 176 23 50 180 24 47 185 22 44 188 23 40 193 22 35 197 22 32 199 23
26 205 23 24 208 22 20 212 23 15 216 24 10 220 24 8 224 21 8 226 19
6 162 13 0 0 0 0 0 0 0 0 0 67 1 5 221 8 13 228 8 17 226 7 19
222 15 18 218 17 21 213 23 19 211 24 20 206 29 19 202 33 20 198 36 19
194 41 19 190 46 19 186 48 20 183 52 20 179 57 19 174 61 20 170 65 19
167 67 20 164 73 18 158 78 19 155 80 20 152 84 20 147 88 20 143 92 20
139 97 19 135 100 19 132 103 19 127 108 19 123 112 19 119 115 20
116 119 19 112 123 19 107 127 20 103 132 19 100 135 19 96 139 19
92 143 20 88 147 20 84 152 19 79 154 21 75 159 20 73 162 19 69 167 19
64 170 20 62 174 19 56 179 20 53 183 19 48 188 19 45 190 19 41 194 20
37 198 20 33 202 20 29 206 19 24 210 20 22 213 19 18 218 20 14 222 19
8 226 19 8 228 18 8 220 13 1 67 4 0 0 0 0 0 0 164 4 10 236 8 10
230 8 14 228 10 16 224 16 15 220 21 14 216 23 16 212 28 15 208 33 14
204 35 15 200 38 16 198 43 13 191 48 16 188 51 16 185 55 15 181 59 14
176 64 16 173 68 15 169 71 15 165 74 16 160 79 16 158 83 15 153 87 16
150 90 16 145 95 15 141 98 15 138 102 15 133 106 15 129 111 15
125 113 16 122 118 14 117 122 16 113 126 15 111 130 14 106 133 16
101 137 16 98 142 15 93 146 16 92 149 15 87 154 14 83 158 14
78 161 16 75 165 15 70 169 15 66 173 15 63 177 15 59 180 15 55 185 15
51 188 16 47 193 15 43 197 16 39 200 16 36 204 15 31 209 15 28 211 16
23 217 15 21 220 15 15 224 16 11 228 16 8 232 14 7 235 12 4 164 7
0 0 0 58 1 3 230 5 8 238 8 7 233 10 10 230 14 10 225 18 12 222 22 11
219 24 12 213 30 12 210 33 12 207 38 9 202 40 12 197 46 11 195 48 11
191 53 10 185 58 11 183 61 9 179 65 10 176 68 11 171 73 10 167 77 9
163 81 10 160 84 11 156 89 9 153 92 9 148 97 8 144 100 9 139 104 11
135 108 11 132 111 11 128 116 11 124 120 10 120 124 9 116 127 12
112 132 10 108 136 10 104 140 10 100 143 11 96 147 12 93 151 11
89 155 12 84 159 10 80 163 12 76 167 11 73 170 10 69 176 8 65 178 10
61 184 9 57 186 11 54 190 10 48 195 11 46 198 10 41 203 11 38 206 10
34 210 11 30 214 10 25 218 12 23 221 10 18 226 11 13 230 11 10 234 10
7 238 9 7 229 7 1 58 2 170 3 8 244 4 5 240 6 7 235 10 9 232 13 9
227 19 8 223 23 8 220 27 7 216 31 8 212 35 7 208 38 7 204 43 7
200 46 7 197 49 8 192 54 7 187 58 8 184 62 7 180 65 8 176 69 9
172 73 8 168 77 8 164 81 9 160 84 10 156 89 9 152 93 9 148 97 8
144 101 8 141 106 8 137 110 7 134 112 8 129 117 8 124 121 8 122 125 7
117 129 7 114 132 7 108 137 8 105 141 7 102 144 7 97 149 8 94 152 8
89 157 8 85 160 8 81 164 8 77 169 7 74 172 7 69 176 8 65 180 8
62 184 8 58 187 8 53 192 8 49 196 8 47 199 8 43 204 7 37 209 7
35 211 7 30 216 8 26 219 8 22 223 9 18 228 9 13 232 9 11 235 8
7 240 6 5 243 5 3 169 6 231 4 7 244 4 5 242 5 6 236 9 8 232 13 9
229 17 8 223 23 8 221 25 8 216 31 7 212 35 6 209 38 6 206 42 6
200 47 7 196 50 7 193 53 7 187 59 7 185 61 7 180 66 8 177 68 9
172 73 8 168 77 8 165 80 9 160 84 10 155 89 9 153 92 9 148 97 8
145 100 8 141 106 8 136 110 7 134 113 7 129 118 7 124 122 7 122 125 7
117 129 7 113 133 7 110 136 7 105 141 7 101 145 7 97 149 8 94 152 8
89 156 8 85 160 8 81 165 7 77 169 7 73 172 7 69 176 8 66 179 8
61 184 8 58 187 8 53 193 7 49 197 7 46 200 7 41 205 7 38 208 7
34 212 7 29 216 8 25 220 8 21 224 8 17 229 9 13 232 9 9 238 7 6 242 6
5 243 5 5 230 7
